<svg width="96" height="96" viewBox="0 0 96 96" fill="none" xmlns="http://www.w3.org/2000/svg">
<g clip-path="url(#clip0_3_39)">
<rect width="96" height="96" fill="white"/>
<path d="M68.0068 20.6533C74.6303 20.6533 79.9999 32.2117 80 46.4697C80 60.7279 74.6303 72.2871 68.0068 72.2871C63.6625 72.2871 59.857 67.3145 57.7529 59.8691C55.6488 67.3143 51.8443 72.287 47.5 72.2871C43.1557 72.2871 39.3502 67.3145 37.2461 59.8691C35.142 67.3143 31.3374 72.287 26.9932 72.2871C20.3697 72.2871 15 60.7279 15 46.4697C15.0001 32.2117 20.3697 20.6533 26.9932 20.6533C31.3373 20.6535 35.142 25.6256 37.2461 33.0703C39.3502 25.6254 43.1558 20.6533 47.5 20.6533C51.8441 20.6534 55.6488 25.6255 57.7529 33.0703C59.8571 25.6253 63.6626 20.6533 68.0068 20.6533Z" fill="black"/>
</g>
<defs>
<clipPath id="clip0_3_39">
<rect width="96" height="96" rx="15" fill="white"/>
</clipPath>
</defs>
</svg>
